# xmcd
# 
# Track frame offsets:
#     180
#     25559
#     40410
#     68529
#     84791
#     103113
#     116286
#     136240
#     150794
#     174108
#     196457
# 
# Disc length: 3045
# 
# Revision: 5
# Processed by: cddbd v1.5.2PL0 Copyright (c) Steve Scherf et al.
# Submitted via: fre:ac v1.0.17
# 
DISCID=720be30b
DTITLE=Eddy  Clearwater - Cool Blues Walk
DYEAR=1998
DGENRE=Blues
TTITLE0=Cool Blues Walk
TTITLE1=Very Good Condition
TTITLE2=Stranded
TTITLE3=Bad Mamma Jamma
TTITLE4=I Just Want to Make Love to You
TTITLE5=Nashville Road
TTITLE6=I Love You
TTITLE7=Boppin' at the Top of the Rock
TTITLE8=The Love I Have for You
TTITLE9=Sen-Say-Shun
TTITLE10=Blues for a Living
EXTD=
EXTT0=
EXTT1=
EXTT2=
EXTT3=
EXTT4=
EXTT5=
EXTT6=
EXTT7=
EXTT8=
EXTT9=
EXTT10=
PLAYORDER=
